<svg xmlns="http://www.w3.org/2000/svg" width="35" height="35" viewBox="0 0 35 35" fill="none">
<path d="M28.5879 11.3422C28.2188 11.2015 27.8496 11.0687 27.4805 10.9438C27.542 10.6547 27.5967 10.3657 27.6514 10.0766C28.4922 5.42061 27.9385 1.67862 26.0723 0.444312C24.2744 -0.735313 21.3418 0.491184 18.375 3.44415C18.0811 3.7332 17.7939 4.03787 17.5205 4.34254C17.3359 4.13943 17.1445 3.93631 16.9531 3.74101C13.8428 0.584929 10.7256 -0.743125 8.85938 0.498996C7.06836 1.68643 6.53516 5.20968 7.28711 9.6157C7.3623 10.0532 7.44434 10.4828 7.54004 10.9203C7.10254 11.0609 6.67188 11.2172 6.26855 11.3812C2.61816 12.8265 0 15.1076 0 17.4668C0 19.9042 2.78906 22.3494 6.58301 23.8337C6.89062 23.9509 7.19824 24.068 7.5127 24.1696C7.41016 24.6383 7.32129 25.0992 7.23926 25.5758C6.52148 29.9115 7.08203 33.3488 8.87305 34.5284C10.7188 35.7471 13.8223 34.4972 16.8438 31.4739C17.083 31.2317 17.3223 30.9817 17.5615 30.7161C17.8623 31.0521 18.1768 31.3723 18.4912 31.6848C21.417 34.5597 24.3086 35.7237 26.0928 34.5441C27.9385 33.3254 28.54 29.6303 27.7607 25.1305C27.6992 24.7868 27.6309 24.4352 27.5557 24.0759C27.7744 24.0056 27.9863 23.9274 28.1982 23.8493C32.1426 22.3572 35 19.9433 35 17.4668C35 15.0998 32.3066 12.803 28.5879 11.3422ZM19.3389 4.70971C21.8818 2.17859 24.2539 1.18646 25.334 1.89736C26.4893 2.65513 26.9336 5.71747 26.209 9.74069C26.1611 10.0063 26.1133 10.2641 26.0518 10.5219C24.5342 10.1313 22.9961 9.85006 21.4512 9.69382C20.5625 8.24077 19.5918 6.85022 18.5391 5.5456C18.8057 5.25655 19.0654 4.98313 19.3389 4.70971ZM11.4297 21.5213C11.7783 22.201 12.1338 22.8806 12.5098 23.5446C11.4434 23.4118 10.3838 23.2165 9.33789 22.9587C9.63867 21.8338 10.0146 20.6698 10.4521 19.4824C10.7666 20.1698 11.0879 20.8495 11.4297 21.5213ZM9.3584 12.1234C10.3428 11.8734 11.3887 11.6703 12.4756 11.514C12.1133 12.1624 11.7578 12.8265 11.4229 13.4983C11.0879 14.1623 10.7598 14.842 10.4521 15.5294C10.0215 14.3654 9.65918 13.2249 9.3584 12.1234ZM11.2314 17.5059C11.6826 16.4278 12.1748 15.3732 12.6943 14.3342C13.2139 13.2952 13.7744 12.2874 14.3623 11.2953C15.3877 11.2094 16.4336 11.1625 17.5 11.1625C18.5664 11.1625 19.6191 11.2094 20.6377 11.2953C21.2188 12.2796 21.7725 13.2874 22.2988 14.3186C22.8252 15.3498 23.3174 16.4044 23.7822 17.4747C23.3242 18.5527 22.832 19.6152 22.3057 20.662C21.7861 21.701 21.2324 22.7087 20.6514 23.7087C19.6328 23.7946 18.5732 23.8337 17.5 23.8337C16.4268 23.8337 15.3877 23.7946 14.3828 23.7243C13.7881 22.7322 13.2275 21.7166 12.7012 20.6776C12.1748 19.6386 11.6895 18.584 11.2314 17.5059ZM23.5771 21.5057C23.9258 20.8182 24.2539 20.1229 24.5752 19.4199C25.0127 20.5526 25.3955 21.701 25.7305 22.8806C24.6709 23.154 23.5977 23.365 22.5176 23.5056C22.8867 22.8494 23.2354 22.1775 23.5771 21.5057ZM24.5615 15.5294C24.2402 14.842 23.9121 14.1545 23.5703 13.4827C23.2354 12.8187 22.8867 12.1624 22.5244 11.514C23.625 11.6703 24.6777 11.8812 25.6621 12.139C25.3477 13.2952 24.9785 14.4201 24.5615 15.5294ZM17.5137 6.74085C18.2314 7.63143 18.9082 8.56888 19.5371 9.53758C18.1836 9.46727 16.8232 9.46727 15.4697 9.53758C16.1396 8.52982 16.8301 7.59237 17.5137 6.74085ZM9.58398 1.95204C10.7324 1.18646 13.2822 2.28015 15.9688 4.99876C16.1396 5.17062 16.3105 5.35811 16.4883 5.5456C15.4287 6.85022 14.4512 8.24077 13.5557 9.69382C12.0107 9.85006 10.4795 10.1235 8.96191 10.5063C8.87305 10.1079 8.79785 9.70163 8.72266 9.2954C8.08008 5.51435 8.50391 2.66294 9.58398 1.95204ZM7.90918 22.5447C7.62207 22.4509 7.3418 22.3494 7.06152 22.24C5.60547 21.7166 3.95117 20.8885 2.75488 19.8027C2.06445 19.2558 1.59961 18.4121 1.46973 17.4668C1.46973 16.0372 3.62988 14.2092 6.74707 12.9671C7.13672 12.8108 7.5332 12.6702 7.92969 12.5374C8.39453 14.2326 8.95508 15.8966 9.60449 17.5059C8.94824 19.1386 8.38086 20.826 7.90918 22.5447ZM15.8799 30.2005C14.752 31.3802 13.4463 32.3176 12.0244 32.9582C11.2656 33.3722 10.3906 33.4113 9.61133 33.0598C8.52441 32.341 8.07324 29.5834 8.68848 25.8726C8.76367 25.4352 8.8457 24.9977 8.94141 24.568C10.4727 24.943 12.0176 25.2008 13.583 25.3336C14.4854 26.7945 15.4766 28.1928 16.5361 29.5053C16.3174 29.7474 16.0986 29.9818 15.8799 30.2005ZM17.5547 28.3022C16.8574 27.4429 16.1602 26.4898 15.4834 25.4664C16.1396 25.4977 16.8164 25.5133 17.5 25.5133C18.2041 25.5133 18.8945 25.4977 19.5781 25.4586C18.9492 26.4507 18.2725 27.396 17.5547 28.3022ZM26.4893 30.6458C26.4277 31.5989 26.0176 32.4895 25.3613 33.091C24.2744 33.8097 21.957 32.8723 19.4551 30.4193C19.168 30.138 18.8809 29.8334 18.5869 29.5209C19.6328 28.2006 20.5967 26.8023 21.4717 25.3336C23.0371 25.1852 24.5957 24.9118 26.1338 24.5133C26.2021 24.8336 26.2637 25.1539 26.3184 25.4664C26.6533 27.1538 26.708 28.9115 26.4893 30.6458ZM27.7334 22.2478C27.542 22.3181 27.3506 22.3885 27.1523 22.4509C26.6738 20.7479 26.0859 19.0839 25.4092 17.4668C26.0654 15.8732 26.6191 14.2326 27.084 12.553C27.4395 12.6702 27.7812 12.7952 28.1094 12.9202C31.2949 14.1701 33.5303 16.0294 33.5303 17.4512C33.5303 18.9824 31.1445 20.9588 27.7334 22.2478ZM17.5 21.076C19.2295 21.076 20.6309 19.4745 20.6309 17.4981C20.6309 15.5216 19.2295 13.9202 17.5 13.9202C15.7705 13.9202 14.3691 15.5216 14.3691 17.4981C14.3691 19.4745 15.7705 21.076 17.5 21.076Z" fill="#61DAFB"/>
</svg>