<svg width="25" height="25" viewBox="0 0 25 25" fill="none" xmlns="http://www.w3.org/2000/svg">
<g id="vuesax/linear/more">
<g id="more">
<path id="Vector" d="M5.20833 10.4167C4.0625 10.4167 3.125 11.3542 3.125 12.5C3.125 13.6459 4.0625 14.5834 5.20833 14.5834C6.35417 14.5834 7.29167 13.6459 7.29167 12.5C7.29167 11.3542 6.35417 10.4167 5.20833 10.4167Z" stroke="#0099F7" stroke-width="1.5"/>
<path id="Vector_2" d="M19.7916 10.4167C18.6458 10.4167 17.7083 11.3542 17.7083 12.5C17.7083 13.6459 18.6458 14.5834 19.7916 14.5834C20.9374 14.5834 21.8749 13.6459 21.8749 12.5C21.8749 11.3542 20.9374 10.4167 19.7916 10.4167Z" stroke="#0099F7" stroke-width="1.5"/>
<path id="Vector_3" d="M12.5001 10.4167C11.3542 10.4167 10.4167 11.3542 10.4167 12.5C10.4167 13.6459 11.3542 14.5834 12.5001 14.5834C13.6459 14.5834 14.5834 13.6459 14.5834 12.5C14.5834 11.3542 13.6459 10.4167 12.5001 10.4167Z" stroke="#0099F7" stroke-width="1.5"/>
</g>
</g>
</svg>
