<svg width="199" height="55" viewBox="0 0 199 55" fill="none" xmlns="http://www.w3.org/2000/svg">
<path d="M7.83301 0C7.83301 0 2.83909 0 1.56662 0C0.294142 0 4.00108e-05 1.3055 1.17499 2.611C2.34994 3.9165 7.3984 8.26817 7.83301 9.57367C8.26763 10.8792 7.83301 0 7.83301 0Z" fill="#373A43"/>
<rect width="5.222" height="10.444" transform="matrix(-1 0 0 1 13.0553 0)" fill="#373A43"/>
<rect x="7.83301" y="10.4441" width="5.222" height="37.4813" fill="#373A43"/>
<path d="M13.055 54.0176C10.8792 54.0176 7.83299 52.277 7.83299 47.9253H13.055V54.0176Z" fill="#373A43"/>
<path d="M13.055 0H193.758C196.642 0 198.98 2.33797 198.98 5.222V48.7957C198.98 51.6797 196.642 54.0177 193.758 54.0177H13.055V0Z" fill="#373A43"/>
</svg>
