<svg width="146" height="34" viewBox="0 0 146 34" fill="none" xmlns="http://www.w3.org/2000/svg">
<path d="M0 5.22201C0 2.33797 2.33797 0 5.222 0H132.343V33.6703H5.222C2.33796 33.6703 0 31.3324 0 28.4483V5.22201Z" fill="#373A43"/>
<path d="M137.226 0.000244141C137.226 0.000244141 142.22 0.000244141 143.492 0.000244141C144.765 0.000244141 145.059 1.30575 143.884 2.61125C142.709 3.91675 137.66 8.26842 137.226 9.57392C136.791 10.8794 137.226 0.000244141 137.226 0.000244141Z" fill="#373A43"/>
<rect x="132" width="5.222" height="10.444" fill="#373A43"/>
<rect x="132" y="10.4441" width="5.222" height="17.134" fill="#373A43"/>
<path d="M132 33.6705C134.176 33.6705 137.222 31.9298 137.222 27.5781H132V33.6705Z" fill="#373A43"/>
</svg>
